<svg width="88" height="100" viewBox="0 0 88 100" fill="none" xmlns="http://www.w3.org/2000/svg">
<path d="M87.2956 26.4544C87.2992 26.3999 87.301 26.3452 87.301 26.2902C87.301 26.136 87.2868 25.9839 87.2594 25.8351C87.1323 25.0941 86.6734 24.4412 86.009 24.057C85.9337 24.0136 85.8569 23.9744 85.7785 23.9392L44.9503 0.342226C44.1615 -0.113724 43.1901 -0.114018 42.4007 0.341001L1.29707 24.0478C0.507967 24.503 0.0216984 25.3443 0.0214046 26.2553L5.32855e-07 73.7058C-0.000587221 74.6165 0.485093 75.4584 1.27356 75.9141L42.3561 99.6579C42.7439 99.8821 43.1841 100 43.6318 100H43.6851C44.1328 100 44.573 99.8821 44.9608 99.6579L86.0431 75.9141C86.8315 75.4583 87.3173 74.6165 87.3166 73.7058L87.2955 26.4545L87.2956 26.4544ZM82.2124 72.2582L45.2009 93.6297V50.8947L82.2124 29.5232V72.2582ZM5.10425 72.2582V29.5232L42.1157 50.8948V93.6298L5.10425 72.2582V72.2582ZM43.6583 5.47949L80.6701 26.8512L79.1278 27.7417L43.6584 48.2229L8.18893 27.7417L6.64661 26.8512L43.6583 5.47949Z" fill="white"/>
</svg>
