<svg width="88" height="100" viewBox="0 0 88 100" fill="none" xmlns="http://www.w3.org/2000/svg">
<path d="M87.2959 26.4544C87.2995 26.3999 87.3014 26.3452 87.3014 26.2902C87.3014 26.136 87.2872 25.9839 87.2598 25.8351C87.1326 25.0941 86.6737 24.4412 86.0094 24.057C85.9341 24.0136 85.8573 23.9744 85.7789 23.9392L44.9507 0.342226C44.1619 -0.113724 43.1905 -0.114018 42.4011 0.341001L1.29744 24.0478C0.508333 24.503 0.0220646 25.3443 0.0217708 26.2553L0.000366744 73.7058C-0.00022101 74.6165 0.485459 75.4584 1.27393 75.9141L42.3565 99.6579C42.7443 99.8821 43.1844 100 43.6322 100H43.6855C44.1332 100 44.5734 99.8821 44.9612 99.6579L86.0434 75.9141C86.8319 75.4583 87.3176 74.6165 87.317 73.7058L87.2959 26.4545L87.2959 26.4544ZM82.2128 72.2582L45.2013 93.6297V50.8947L82.2128 29.5232V72.2582ZM5.10461 72.2582V29.5232L42.1161 50.8948V93.6298L5.10461 72.2582V72.2582ZM43.6587 5.47949L80.6705 26.8512L79.1282 27.7417L43.6587 48.2229L8.18929 27.7417L6.64698 26.8512L43.6587 5.47949Z" fill="black"/>
</svg>
