<svg width="397" height="100" viewBox="0 0 397 100" fill="none" xmlns="http://www.w3.org/2000/svg">
<path d="M111.391 63.9301C111.11 63.9301 110.881 63.8411 110.703 63.6625C110.524 63.4845 110.435 63.2551 110.435 62.9744V42.4822H103.477C103.222 42.4822 103.005 42.3932 102.827 42.2146C102.648 42.0366 102.559 41.8197 102.559 41.5646V38.1238C102.559 37.8437 102.648 37.6143 102.827 37.4357C103.005 37.2577 103.222 37.1681 103.477 37.1681H123.51C123.79 37.1681 124.02 37.2577 124.198 37.4357C124.376 37.6143 124.466 37.8437 124.466 38.1238V41.5646C124.466 41.8197 124.376 42.0366 124.198 42.2146C124.02 42.3932 123.79 42.4822 123.51 42.4822H116.59V62.9744C116.59 63.2551 116.501 63.4845 116.323 63.6625C116.144 63.8411 115.915 63.9301 115.635 63.9301H111.391H111.391Z" fill="white"/>
<path d="M132.762 64.3122C129.83 64.3122 127.505 63.4969 125.785 61.8655C124.064 60.2348 123.153 57.8643 123.051 54.7544V53.1106C123.152 51.1482 123.599 49.4595 124.389 48.0448C125.179 46.6302 126.287 45.5472 127.715 44.795C129.142 44.0436 130.812 43.6672 132.723 43.6672C134.864 43.6672 136.655 44.107 138.095 44.9863C139.535 45.8656 140.618 47.0639 141.345 48.58C142.071 50.097 142.434 51.8363 142.434 53.7987V54.6782C142.434 54.9331 142.339 55.15 142.147 55.328C141.956 55.5067 141.733 55.5956 141.479 55.5956H128.977V55.9016C129.002 56.7176 129.161 57.4629 129.455 58.1379C129.747 58.8135 130.168 59.3553 130.716 59.7627C131.264 60.171 131.921 60.3745 132.685 60.3745C133.322 60.3745 133.845 60.2855 134.253 60.1069C134.66 59.9289 134.998 59.712 135.266 59.4571C135.533 59.2025 135.731 58.9856 135.858 58.807C136.088 58.5527 136.272 58.3931 136.413 58.3293C136.553 58.2658 136.776 58.2337 137.082 58.2337H141.058C141.312 58.2337 141.523 58.3041 141.689 58.4438C141.854 58.5842 141.924 58.7821 141.899 59.0364C141.873 59.4444 141.663 59.9482 141.268 60.5466C140.873 61.1457 140.293 61.7317 139.529 62.3052C138.764 62.8788 137.814 63.3565 136.68 63.739C135.546 64.1211 134.239 64.3122 132.762 64.3122ZM128.977 52.1163H136.47V52.0401C136.47 51.1224 136.323 50.3263 136.03 49.6506C135.737 48.9756 135.31 48.4463 134.75 48.0639C134.189 47.6816 133.513 47.4904 132.723 47.4904C131.933 47.4904 131.257 47.6816 130.697 48.0639C130.136 48.4463 129.709 48.9756 129.416 49.6506C129.123 50.3262 128.977 51.1223 128.977 52.0401V52.1163H128.977Z" fill="white"/>
<path d="M153.521 64.3122C151.94 64.3122 150.583 64.127 149.449 63.7579C148.315 63.3888 147.397 62.9361 146.697 62.4008C145.995 61.8655 145.473 61.3243 145.129 60.776C144.785 60.2282 144.6 59.7627 144.575 59.3806C144.549 59.1005 144.638 58.8711 144.842 58.6925C145.046 58.5145 145.25 58.4249 145.454 58.4249H149.162C149.239 58.4249 149.315 58.4379 149.392 58.4632C149.468 58.4887 149.545 58.5528 149.621 58.6542C149.952 58.8836 150.296 59.1453 150.654 59.4379C151.01 59.7313 151.424 59.9797 151.896 60.1835C152.367 60.3877 152.96 60.4895 153.674 60.4895C154.515 60.4895 155.228 60.3173 155.815 59.9732C156.401 59.6293 156.694 59.1388 156.694 58.5011C156.694 58.0424 156.56 57.6603 156.293 57.3543C156.025 57.0484 155.522 56.7683 154.783 56.5132C154.043 56.2589 152.947 55.9779 151.495 55.6723C150.118 55.3663 148.946 54.959 147.977 54.4489C147.009 53.9391 146.282 53.2959 145.798 52.5179C145.314 51.7408 145.072 50.8041 145.072 49.708C145.072 48.714 145.384 47.7581 146.008 46.8405C146.633 45.923 147.557 45.165 148.78 44.5658C150.004 43.9674 151.533 43.6674 153.368 43.6674C154.769 43.6674 155.999 43.8395 157.057 44.1835C158.115 44.5277 159 44.9613 159.714 45.4834C160.428 46.0061 160.97 46.5414 161.339 47.0891C161.708 47.6374 161.906 48.1154 161.932 48.5228C161.957 48.7778 161.88 48.9948 161.702 49.1727C161.524 49.3514 161.32 49.4404 161.091 49.4404H157.688C157.56 49.4404 157.446 49.4214 157.344 49.3831C157.242 49.3448 157.153 49.2876 157.077 49.211C156.771 49.0071 156.458 48.7713 156.14 48.5036C155.821 48.236 155.445 48.0007 155.012 47.7964C154.578 47.5927 154.018 47.4905 153.33 47.4905C152.489 47.4905 151.845 47.6757 151.399 48.0449C150.953 48.4146 150.73 48.8802 150.73 49.4403C150.73 49.7976 150.845 50.1284 151.074 50.4343C151.303 50.7402 151.775 51.0209 152.489 51.2755C153.202 51.5304 154.286 51.798 155.738 52.0784C157.471 52.384 158.848 52.843 159.867 53.4546C160.886 54.0664 161.619 54.7738 162.066 55.5767C162.511 56.3793 162.735 57.2395 162.735 58.1572C162.735 59.3554 162.377 60.4194 161.664 61.3496C160.95 62.2801 159.912 63.0065 158.548 63.5286C157.185 64.0508 155.509 64.3122 153.521 64.3122L153.521 64.3122Z" fill="white"/>
<path d="M175.58 63.9302C173.999 63.9302 172.649 63.669 171.527 63.1465C170.406 62.6243 169.559 61.8149 168.985 60.7188C168.412 59.6231 168.125 58.2469 168.125 56.5898V48.5611H165.143C164.862 48.5611 164.633 48.4721 164.455 48.2935C164.276 48.1155 164.187 47.8861 164.187 47.6053V45.0056C164.187 44.7253 164.276 44.496 164.455 44.3174C164.633 44.1394 164.862 44.0497 165.143 44.0497H168.125V37.7416C168.125 37.4615 168.221 37.2321 168.412 37.0535C168.603 36.8755 168.826 36.7859 169.081 36.7859H172.827C173.108 36.7859 173.337 36.8755 173.516 37.0535C173.694 37.2321 173.783 37.4615 173.783 37.7416V44.0497H178.562C178.817 44.0497 179.033 44.1394 179.212 44.3174C179.39 44.496 179.48 44.7254 179.48 45.0056V47.6053C179.48 47.8861 179.39 48.1155 179.212 48.2935C179.033 48.4721 178.817 48.5611 178.562 48.5611H173.783V56.131C173.783 57.0998 173.955 57.8579 174.299 58.4056C174.643 58.9539 175.249 59.2278 176.115 59.2278H178.906C179.161 59.2278 179.378 59.3175 179.556 59.4955C179.734 59.6738 179.824 59.8907 179.824 60.1453V62.9745C179.824 63.2552 179.734 63.4845 179.556 63.6625C179.378 63.8412 179.161 63.9302 178.906 63.9302H175.58H175.58Z" fill="white"/>
<path d="M192.937 64.3122C191.076 64.3122 189.439 63.9683 188.024 63.2803C186.61 62.5919 185.495 61.592 184.679 60.279C183.863 58.9667 183.417 57.3926 183.341 55.5574C183.315 55.15 183.303 54.634 183.303 54.0092C183.303 53.3849 183.315 52.8686 183.341 52.4606C183.417 50.6005 183.857 49.014 184.66 47.7006C185.463 46.3883 186.578 45.3877 188.005 44.6995C189.432 44.0115 191.076 43.6672 192.937 43.6672C194.644 43.6672 196.097 43.9033 197.296 44.3746C198.493 44.8466 199.475 45.4391 200.239 46.1524C201.004 46.8661 201.571 47.6116 201.941 48.3889C202.31 49.1667 202.508 49.8482 202.533 50.4342C202.558 50.6894 202.476 50.9122 202.285 51.1034C202.094 51.2945 201.87 51.39 201.616 51.39H197.525C197.27 51.39 197.072 51.3203 196.932 51.1799C196.792 51.0402 196.658 50.8422 196.531 50.5873C196.174 49.6954 195.715 49.0581 195.154 48.6756C194.594 48.2933 193.893 48.1021 193.052 48.1021C191.905 48.1021 191 48.472 190.337 49.2109C189.674 49.9504 189.318 51.0975 189.267 52.6516C189.241 53.6456 189.241 54.5509 189.267 55.3663C189.343 56.9469 189.707 58.0937 190.356 58.807C191.006 59.5209 191.905 59.8775 193.052 59.8775C193.944 59.8775 194.657 59.6865 195.193 59.304C195.728 58.9218 196.174 58.2851 196.531 57.3926C196.632 57.138 196.76 56.9404 196.913 56.8C197.066 56.6603 197.27 56.5896 197.525 56.5896H201.616C201.87 56.5896 202.094 56.6852 202.285 56.8763C202.476 57.0677 202.558 57.2911 202.533 57.5454C202.508 57.9792 202.386 58.4886 202.17 59.0747C201.953 59.6613 201.609 60.2601 201.138 60.8716C200.666 61.4834 200.061 62.0507 199.322 62.5729C198.582 63.0954 197.684 63.5162 196.626 63.8345C195.568 64.1529 194.338 64.3122 192.937 64.3122H192.937Z" fill="white"/>
<path d="M214.996 64.3123C212.88 64.3123 211.109 63.9619 209.682 63.261C208.254 62.5605 207.164 61.5597 206.413 60.26C205.661 58.9601 205.247 57.4439 205.17 55.7105C205.145 55.2007 205.132 54.6207 205.132 53.9709C205.132 53.3211 205.145 52.7541 205.17 52.2695C205.247 50.5109 205.68 48.9881 206.47 47.7007C207.26 46.414 208.369 45.42 209.797 44.7188C211.224 44.0181 212.957 43.6674 214.996 43.6674C217.009 43.6674 218.729 44.0181 220.157 44.7188C221.584 45.42 222.693 46.414 223.483 47.7007C224.273 48.9882 224.706 50.5109 224.783 52.2695C224.834 52.7541 224.86 53.3208 224.86 53.9709C224.86 54.621 224.834 55.2007 224.783 55.7105C224.707 57.444 224.292 58.9602 223.541 60.26C222.789 61.5597 221.699 62.5605 220.272 63.261C218.844 63.9619 217.086 64.3123 214.996 64.3123H214.996ZM214.996 60.1069C216.244 60.1069 217.188 59.7185 217.825 58.9408C218.462 58.1638 218.806 57.0235 218.857 55.5191C218.883 55.137 218.896 54.6272 218.896 53.9898C218.896 53.3531 218.883 52.843 218.857 52.4605C218.806 50.9826 218.462 49.8483 217.825 49.0581C217.188 48.2681 216.244 47.8727 214.996 47.8727C213.748 47.8727 212.798 48.2681 212.147 49.0581C211.498 49.8483 211.147 50.9826 211.096 52.4605C211.071 52.843 211.058 53.3531 211.058 53.9898C211.058 54.6272 211.071 55.1369 211.096 55.5191C211.147 57.0235 211.498 58.1638 212.147 58.9408C212.798 59.7185 213.747 60.1069 214.996 60.1069Z" fill="white"/>
<path d="M229.142 63.93C228.886 63.93 228.67 63.841 228.492 63.6624C228.313 63.4844 228.224 63.2551 228.224 62.9744V45.0055C228.224 44.7252 228.313 44.4959 228.492 44.3172C228.67 44.1393 228.886 44.0496 229.142 44.0496H232.888C233.168 44.0496 233.398 44.1393 233.577 44.3172C233.755 44.4959 233.844 44.7252 233.844 45.0055V46.4964C234.507 45.6811 235.36 45.0055 236.406 44.4702C237.451 43.9349 238.725 43.6672 240.229 43.6672C241.733 43.6672 243.051 44.0053 244.186 44.6804C245.319 45.356 246.212 46.3375 246.862 47.6242C247.512 48.9116 247.837 50.4725 247.837 52.3078V62.9744C247.837 63.2551 247.741 63.4844 247.55 63.6624C247.359 63.841 247.135 63.93 246.881 63.93H242.828C242.547 63.93 242.318 63.841 242.14 63.6624C241.962 63.4844 241.873 63.2551 241.873 62.9744V52.5371C241.873 51.1865 241.548 50.1349 240.898 49.383C240.248 48.6315 239.298 48.2551 238.049 48.2551C236.851 48.2551 235.895 48.6315 235.182 49.383C234.468 50.1349 234.112 51.1865 234.112 52.5371V62.9744C234.112 63.2551 234.022 63.4844 233.844 63.6624C233.666 63.841 233.448 63.93 233.194 63.93H229.142H229.142Z" fill="white"/>
<path d="M261.599 63.9302C260.019 63.9302 258.669 63.669 257.547 63.1465C256.425 62.6243 255.578 61.8149 255.005 60.7188C254.431 59.6231 254.145 58.2469 254.145 56.5898V48.5611H251.163C250.882 48.5611 250.653 48.4721 250.475 48.2935C250.296 48.1155 250.207 47.8861 250.207 47.6053V45.0056C250.207 44.7253 250.296 44.496 250.475 44.3174C250.653 44.1394 250.882 44.0497 251.163 44.0497H254.145V37.7416C254.145 37.4615 254.24 37.2321 254.431 37.0535C254.623 36.8755 254.845 36.7859 255.1 36.7859H258.847C259.127 36.7859 259.357 36.8755 259.535 37.0535C259.713 37.2321 259.803 37.4615 259.803 37.7416V44.0497H264.582C264.836 44.0497 265.053 44.1394 265.232 44.3174C265.41 44.496 265.499 44.7254 265.499 45.0056V47.6053C265.499 47.8861 265.41 48.1155 265.232 48.2935C265.053 48.4721 264.836 48.5611 264.582 48.5611H259.803V56.131C259.803 57.0998 259.975 57.8579 260.319 58.4056C260.663 58.9539 261.268 59.2278 262.135 59.2278H264.926C265.18 59.2278 265.397 59.3175 265.576 59.4955C265.754 59.6738 265.843 59.8907 265.843 60.1453V62.9745C265.843 63.2552 265.754 63.4845 265.576 63.6625C265.397 63.8412 265.18 63.9302 264.926 63.9302H261.599Z" fill="white"/>
<path d="M275.401 64.3122C274.05 64.3122 272.84 64.0508 271.769 63.5286C270.698 63.0064 269.844 62.2993 269.208 61.4068C268.57 60.5149 268.252 59.5209 268.252 58.4248C268.252 56.6155 268.984 55.1883 270.45 54.1427C271.915 53.0979 273.846 52.3841 276.242 52.0019L281.25 51.2755V50.5874C281.25 49.5932 281.021 48.8288 280.562 48.2934C280.103 47.7581 279.301 47.4905 278.154 47.4905C277.313 47.4905 276.637 47.6565 276.127 47.9875C275.617 48.3191 275.222 48.7522 274.942 49.2875C274.738 49.619 274.445 49.7845 274.063 49.7845H270.431C270.15 49.7845 269.934 49.702 269.781 49.5359C269.628 49.3703 269.564 49.1727 269.59 48.9433C269.59 48.5101 269.755 48.0006 270.087 47.414C270.418 46.828 270.928 46.2479 271.616 45.6744C272.304 45.101 273.184 44.6231 274.254 44.2408C275.324 43.8585 276.637 43.6672 278.192 43.6672C279.797 43.6672 281.174 43.8585 282.321 44.2408C283.468 44.6231 284.385 45.1584 285.074 45.8464C285.762 46.5346 286.271 47.3315 286.603 48.2359C286.934 49.1409 287.1 50.1159 287.1 51.1606V62.9743C287.1 63.255 287.01 63.4844 286.832 63.6624C286.653 63.841 286.424 63.93 286.144 63.93H282.397C282.142 63.93 281.925 63.841 281.747 63.6624C281.569 63.4844 281.48 63.255 281.48 62.9743V61.5596C281.148 62.0441 280.702 62.4963 280.142 62.917C279.581 63.3375 278.912 63.6754 278.134 63.93C277.357 64.1846 276.446 64.3122 275.401 64.3122V64.3122ZM276.93 60.3363C277.772 60.3363 278.523 60.1583 279.186 59.801C279.848 59.4444 280.371 58.8966 280.753 58.1572C281.136 57.4181 281.327 56.4882 281.327 55.3663V54.7162L277.772 55.2897C276.395 55.5191 275.388 55.8633 274.751 56.322C274.114 56.7808 273.795 57.3418 273.795 58.0041C273.795 58.4886 273.942 58.9094 274.235 59.2657C274.528 59.6229 274.917 59.8906 275.401 60.0686C275.885 60.2472 276.395 60.3362 276.93 60.3362V60.3363Z" fill="white"/>
<path d="M291.955 40.9913C291.7 40.9913 291.483 40.9023 291.305 40.7236C291.126 40.5456 291.037 40.3161 291.037 40.0354V36.9769C291.037 36.6968 291.126 36.4608 291.305 36.2697C291.483 36.0785 291.7 35.9829 291.955 35.9829H295.969C296.249 35.9829 296.485 36.0785 296.676 36.2697C296.868 36.4608 296.963 36.6968 296.963 36.9769V40.0354C296.963 40.3161 296.868 40.5456 296.676 40.7236C296.485 40.9023 296.249 40.9913 295.969 40.9913H291.955ZM292.07 63.9301C291.815 63.9301 291.598 63.8411 291.42 63.6625C291.241 63.4845 291.152 63.2551 291.152 62.9744V45.0055C291.152 44.7253 291.241 44.4959 291.42 44.3173C291.598 44.1393 291.815 44.0497 292.07 44.0497H295.893C296.173 44.0497 296.402 44.1393 296.581 44.3173C296.759 44.4959 296.849 44.7253 296.849 45.0055V62.9744C296.849 63.2551 296.759 63.4845 296.581 63.6625C296.402 63.8411 296.173 63.9301 295.893 63.9301H292.07Z" fill="white"/>
<path d="M302.544 63.93C302.289 63.93 302.072 63.841 301.894 63.6624C301.716 63.4844 301.627 63.2551 301.627 62.9744V45.0055C301.627 44.7252 301.716 44.4959 301.894 44.3172C302.072 44.1393 302.289 44.0496 302.544 44.0496H306.291C306.571 44.0496 306.801 44.1393 306.979 44.3172C307.157 44.4959 307.246 44.7252 307.246 45.0055V46.4964C307.909 45.6811 308.763 45.0055 309.808 44.4702C310.853 43.9349 312.127 43.6672 313.631 43.6672C315.135 43.6672 316.454 44.0053 317.588 44.6804C318.722 45.356 319.614 46.3375 320.264 47.6242C320.914 48.9116 321.24 50.4725 321.24 52.3078V62.9744C321.24 63.2551 321.144 63.4844 320.953 63.6624C320.762 63.841 320.538 63.93 320.284 63.93H316.231C315.95 63.93 315.721 63.841 315.543 63.6624C315.364 63.4844 315.275 63.2551 315.275 62.9744V52.5371C315.275 51.1865 314.95 50.1349 314.3 49.383C313.651 48.6315 312.701 48.2551 311.452 48.2551C310.254 48.2551 309.298 48.6315 308.585 49.383C307.871 50.1349 307.514 51.1865 307.514 52.5371V62.9744C307.514 63.2551 307.425 63.4844 307.247 63.6624C307.068 63.841 306.851 63.93 306.597 63.93H302.544H302.544Z" fill="white"/>
<path d="M334.123 64.3122C331.192 64.3122 328.866 63.4969 327.146 61.8655C325.426 60.2348 324.514 57.8643 324.413 54.7544V53.1106C324.514 51.1482 324.96 49.4595 325.751 48.0448C326.54 46.6302 327.649 45.5472 329.077 44.795C330.504 44.0436 332.174 43.6672 334.085 43.6672C336.226 43.6672 338.016 44.107 339.456 44.9863C340.896 45.8656 341.98 47.0639 342.706 48.58C343.432 50.097 343.796 51.8363 343.796 53.7987V54.6782C343.796 54.9331 343.7 55.15 343.509 55.328C343.318 55.5067 343.094 55.5956 342.84 55.5956H330.338V55.9016C330.364 56.7176 330.523 57.4629 330.816 58.1379C331.109 58.8135 331.529 59.3553 332.078 59.7627C332.625 60.171 333.282 60.3745 334.047 60.3745C334.684 60.3745 335.206 60.2855 335.614 60.1069C336.022 59.9289 336.36 59.712 336.628 59.4571C336.895 59.2025 337.092 58.9856 337.22 58.807C337.449 58.5527 337.634 58.3931 337.774 58.3293C337.914 58.2658 338.138 58.2337 338.444 58.2337H342.419C342.674 58.2337 342.884 58.3041 343.05 58.4438C343.216 58.5842 343.286 58.7821 343.261 59.0364C343.235 59.4444 343.025 59.9482 342.629 60.5466C342.234 61.1457 341.655 61.7317 340.89 62.3052C340.126 62.8788 339.176 63.3565 338.042 63.739C336.908 64.1211 335.601 64.3122 334.123 64.3122H334.123ZM330.338 52.1163H337.832V52.0401C337.832 51.1224 337.685 50.3263 337.392 49.6506C337.099 48.9756 336.672 48.4463 336.111 48.0639C335.55 47.6816 334.875 47.4904 334.085 47.4904C333.294 47.4904 332.619 47.6816 332.059 48.0639C331.498 48.4463 331.071 48.9756 330.778 49.6506C330.485 50.3262 330.338 51.1223 330.338 52.0401V52.1163H330.338Z" fill="white"/>
<path d="M348.154 63.9302C347.899 63.9302 347.682 63.8412 347.504 63.6625C347.325 63.4845 347.236 63.2552 347.236 62.9745V45.0056C347.236 44.751 347.325 44.5277 347.504 44.3365C347.682 44.1454 347.899 44.0497 348.154 44.0497H351.9C352.155 44.0497 352.378 44.1454 352.569 44.3365C352.761 44.5277 352.856 44.751 352.856 45.0056V46.5349C353.493 45.745 354.277 45.1334 355.208 44.6997C356.138 44.2667 357.215 44.0497 358.438 44.0497H360.082C360.337 44.0497 360.553 44.1394 360.732 44.3174C360.91 44.496 360.999 44.7254 360.999 45.0056V48.2935C360.999 48.5742 360.91 48.8037 360.732 48.9817C360.553 49.1603 360.337 49.2493 360.082 49.2493H356.718C355.596 49.2493 354.716 49.5617 354.08 50.186C353.442 50.8106 353.124 51.696 353.124 52.8431V62.9744C353.124 63.2551 353.034 63.4845 352.856 63.6625C352.678 63.8411 352.448 63.9301 352.168 63.9301H348.154V63.9302Z" fill="white"/>
<path d="M371.704 64.3122C370.124 64.3122 368.766 64.127 367.632 63.7579C366.498 63.3889 365.581 62.9361 364.88 62.4008C364.179 61.8655 363.656 61.3243 363.312 60.776C362.968 60.2282 362.783 59.7627 362.758 59.3806C362.732 59.1005 362.821 58.8711 363.026 58.6925C363.229 58.5145 363.433 58.4249 363.637 58.4249H367.346C367.422 58.4249 367.499 58.4379 367.575 58.4632C367.652 58.4887 367.728 58.5528 367.805 58.6542C368.136 58.8836 368.479 59.1453 368.837 59.4379C369.193 59.7313 369.607 59.9797 370.079 60.1835C370.551 60.3877 371.143 60.4895 371.857 60.4895C372.698 60.4895 373.411 60.3173 373.998 59.9732C374.584 59.6293 374.877 59.1388 374.877 58.5011C374.877 58.0424 374.743 57.6603 374.476 57.3543C374.208 57.0484 373.705 56.7683 372.966 56.5132C372.226 56.2589 371.131 55.9779 369.678 55.6723C368.301 55.3663 367.129 54.959 366.161 54.4489C365.192 53.9391 364.466 53.2959 363.981 52.5179C363.497 51.7408 363.255 50.8041 363.255 49.708C363.255 48.714 363.567 47.7581 364.192 46.8405C364.816 45.923 365.74 45.165 366.963 44.5658C368.187 43.9674 369.716 43.6674 371.551 43.6674C372.953 43.6674 374.183 43.8395 375.241 44.1835C376.298 44.5277 377.184 44.9613 377.898 45.4834C378.611 46.0061 379.153 46.5414 379.522 47.0891C379.892 47.6374 380.089 48.1154 380.115 48.5228C380.14 48.7778 380.064 48.9948 379.886 49.1727C379.707 49.3514 379.503 49.4404 379.274 49.4404H375.871C375.744 49.4404 375.629 49.4214 375.527 49.3831C375.425 49.3448 375.336 49.2876 375.26 49.211C374.954 49.0071 374.641 48.7713 374.323 48.5036C374.004 48.236 373.628 48.0007 373.195 47.7964C372.762 47.5927 372.201 47.4905 371.513 47.4905C370.672 47.4905 370.028 47.6757 369.582 48.0449C369.136 48.4146 368.913 48.8802 368.913 49.4403C368.913 49.7976 369.028 50.1284 369.257 50.4343C369.487 50.7402 369.958 51.0209 370.672 51.2755C371.385 51.5304 372.469 51.798 373.922 52.0784C375.655 52.384 377.031 52.843 378.051 53.4546C379.07 54.0664 379.803 54.7738 380.249 55.5767C380.694 56.3793 380.918 57.2395 380.918 58.1572C380.918 59.3554 380.561 60.4194 379.847 61.3496C379.134 62.2801 378.095 63.0065 376.731 63.5286C375.368 64.0508 373.692 64.3122 371.704 64.3122L371.704 64.3122Z" fill="white"/>
<path d="M87.2956 26.4544C87.2992 26.3999 87.301 26.3452 87.301 26.2902C87.301 26.136 87.2868 25.9839 87.2594 25.8351C87.1323 25.0941 86.6734 24.4412 86.009 24.057C85.9337 24.0136 85.8569 23.9744 85.7785 23.9392L44.9503 0.342226C44.1615 -0.113724 43.1901 -0.114018 42.4007 0.341001L1.29707 24.0478C0.507967 24.503 0.0216984 25.3443 0.0214046 26.2553L5.32855e-07 73.7058C-0.000587221 74.6165 0.485093 75.4584 1.27356 75.9141L42.3561 99.6579C42.7439 99.8821 43.1841 100 43.6318 100H43.6851C44.1328 100 44.573 99.8821 44.9608 99.6579L86.0431 75.9141C86.8315 75.4583 87.3173 74.6165 87.3166 73.7058L87.2955 26.4545L87.2956 26.4544ZM82.2124 72.2582L45.2009 93.6297V50.8947L82.2124 29.5232V72.2582ZM5.10425 72.2582V29.5232L42.1157 50.8948V93.6298L5.10425 72.2582V72.2582ZM43.6583 5.47949L80.6701 26.8512L79.1278 27.7417L43.6584 48.2229L8.18893 27.7417L6.64661 26.8512L43.6583 5.47949Z" fill="white"/>
</svg>
